<?xml version="1.0" encoding="UTF-8" standalone="no"?>
<svg height="217.95291" width="454.99899" xmlns="http://www.w3.org/2000/svg">
   <g stroke-width="21.72143936" transform="translate(-147.50061 -309.42951)">
      <path d="m415.15219 431.63431c0 52.91343-43.29083 95.74811-96.72557 95.74811-53.41302 0-96.70385-42.8564-96.70385-95.74811 0-52.86998 43.29083-95.68294 96.70385-95.68294 53.43474 0 96.72557 42.83468 96.72557 95.68294m-96.72557-55.45484c-30.99649 0-55.99787 24.87105-55.99787 55.47656 0 30.67068 25.00138 55.49828 55.99787 55.49828 30.97477 0 56.06304-24.8276 56.06304-55.49828 0-30.62723-25.10999-55.47656-56.06304-55.47656" fill="#ef4130"/>
      <path d="m539.11645 457.17872h5.27831c10.62178 0 18.85421-2.56313 24.87105-7.62422 5.90823-5.03938 8.92751-12.53327 8.92751-21.43906 0-8.92751-3.01928-16.37797-8.92751-21.48251-5.99512-5.06109-14.22755-7.62422-24.87105-7.62422h-5.27831zm-23.8067 21.50423v-100.96125h26.8477c18.85421 0 33.62479 4.47461 44.31174 13.42385 10.62178 8.88407 16.03042 21.50422 16.03042 37.03505 0 9.25334-2.1287 17.89847-6.34266 25.10999-4.23568 7.18979-10.42629 13.20663-18.637 17.8333-4.64838 2.69346-9.68776 4.58322-15.13984 5.7779-5.4738 1.17296-12.22917 1.78116-20.22266 1.78116zm-59.88601-3.08445v-97.89852h24.13252v79.47874h31.43092v21.48251h-81.67261l-28.86779-40.20639v40.20639h-23.43744v-100.96125h26.02229c8.34103 0 14.74886.54303 19.31036 1.65083 4.60494 1.06435 8.68857 2.86723 12.22917 5.40863 3.75781 2.67174 6.64676 5.95168 8.7103 9.88326 2.08525 3.9533 3.12788 8.03693 3.12788 12.44638 0 6.2775-1.6291 11.79475-4.88732 16.57346-3.19305 4.71355-8.08038 9.42711-13.88 12.16401zm-50.9585-79.7394h-3.99674v27.76h5.08282c6.06028 0 10.70867-1.19468 13.90172-3.6492 3.23649-2.45453 4.84388-5.92996 4.84388-10.49146 0-4.75699-1.56395-8.25414-4.67011-10.38285-3.12789-2.15042-8.18898-3.23649-15.16157-3.23649m-213.54347 82.84557l-43.42116-101.09158h27.95549l16.33453 47.28757 20.89602-50.43718h1.88977l21.02635 50.43718 16.16075-47.28757h26.32639l-43.92075 101.09158h-1.73772l-19.72307-55.47656-19.98372 55.47656zm183.32895-65.03399l-34.47192 24.84933 13.16319 40.18466-34.53709-24.8276c0 0 .0434 0-34.53709 24.8276 1.71599-3.32338 14.81402-22.63374 39.48958-40.38016 25.60957-18.39806 50.58923-24.65383 50.89333-24.65383-2.21559.39099-37.1871 5.73446-77.13283 24.84933l-34.53709-24.84933h42.68263l13.14147-40.16294 13.16319 40.16294zm-159.10955-85.14804c6.42955 4.45289 8.49309 9.03611 6.60332 14.94435-1.41189 4.62666-5.40864 7.64594-12.4681 7.97176-4.84389.26066-8.79719-1.08607-10.57835-1.80287v-7.4939c2.10698 3.17133 5.75619 6.51643 10.31769 6.51643 3.41026 0 5.88651-2.17214 6.47299-4.97421.45615-2.38936.65164-5.01765-8.21071-11.16482-7.88488-5.45208-9.99186-9.123-8.97095-15.07468.93402-5.40864 6.45127-7.95005 13.61934-7.95005 3.30166 0 6.06028.82542 7.62423 1.28157 0 0-.0652-.0869-.0652 6.64676-1.95493-3.14961-4.67011-5.0611-8.4062-5.0611-4.17051 0-6.47298 2.19387-6.82053 4.82216-.34754 3.01928 2.56313 5.69102 8.64514 9.8181zm103.52439-18.44151h16.22591v6.23406c0 0-1.47706-2.60658-3.38854-2.60658h-9.44883v33.4293c0 2.34592 1.71599 3.77953 1.71599 3.77953l-5.10453.0217-5.12626-.0217c0 0 1.69427-1.41189 1.69427-3.77953v-33.4293h-9.42711c-1.95493 0-3.38854 2.60658-3.38854 2.60658v-6.23406zm234.07023 40.83631l-7.51562.45615c-2.32419 0-4.36601-1.80288-8.40619-7.68939-3.2365-4.71355-7.03775-10.62178-7.16808-10.75211h-3.01928v14.87918c0 1.93321 1.91149 3.12789 1.91149 3.12789h-8.14554v-36.4703c0-2.78034-2.04182-4.38773-2.04182-4.38773l11.22999-.0217c10.40457 0 14.40131 5.3652 14.40131 11.25171 0 8.36275-7.81972 10.73039-7.81972 10.73039 0 0 4.86561 7.21152 8.16726 11.77302 3.58404 4.82216 6.77709 6.92914 8.4062 7.10291m-26.08745-37.75186v16.74723h2.67174c5.99512 0 8.18898-3.77953 8.18898-8.49308 0-4.64839-2.19386-8.27587-8.23242-8.27587h-2.6283zm-106.283 23.1985h9.94842l-5.27831-13.81484zm11.2517 3.27993h-12.25089l-2.97584 8.84063c-.45615 1.39017 1.36845 2.45452 1.36845 2.45452h-7.2984c0 0 1.04263-.69508 1.95493-2.60657.3041-.76025 13.66279-38.9031 13.66279-38.9031 0 0 15.00951 38.01252 15.53083 38.88138 1.15123 1.8246 2.1287 2.62829 2.1287 2.62829h-9.66604c0 0 1.49878-.82541.9123-2.45452z"/>
   </g>
</svg>
